<mxfile host="app.diagrams.net" modified="2024-04-30T11:45:31.120Z" agent="Mozilla/5.0 (Windows NT 10.0; Win64; x64) AppleWebKit/537.36 (KHTML, like Gecko) Chrome/124.0.0.0 Safari/537.36" version="24.3.1" etag="ncf3qNApFvTIU2LR5iX-" type="github">
  <diagram name="Page-1" id="7X4J4lXAmFV7mw58huWc">
    <mxGraphModel>
      <root>
        <mxCell id="0" />
        <mxCell id="1" parent="0" />
      </root>
    </mxGraphModel>
  </diagram>
</mxfile>
